<?xml version="1.0" encoding="UTF-8"?>
<svg viewBox="0 0 14 14" version="1.1" xmlns="http://www.w3.org/2000/svg" xmlns:xlink="http://www.w3.org/1999/xlink">
  <g stroke="none" stroke-width="1" fill="currentColor" fill-rule="evenodd">
    <path d="M0.29289,0.29289 C0.68342,-0.09763 1.31658,-0.09763 1.70711,0.29289 L13.7071,12.2929 C14.0976,12.6834 14.0976,13.3166 13.7071,13.7071 C13.3166,14.0976 12.6834,14.0976 12.2929,13.7071 L0.29289,1.70711 C-0.09763,1.31658 -0.09763,0.68342 0.29289,0.29289 Z"></path>
    <path d="M13.7071,0.29289 C14.0976,0.68342 14.0976,1.31658 13.7071,1.70711 L1.70711,13.7071 C1.31658,14.0976 0.68342,14.0976 0.29289,13.7071 C-0.09763,13.3166 -0.09763,12.6834 0.29289,12.2929 L12.2929,0.29289 C12.6834,-0.09763 13.3166,-0.09763 13.7071,0.29289 Z"></path>
  </g>
</svg>
