<?xml version="1.0" encoding="UTF-8"?>
<svg viewBox="0 0 18 18" version="1.1" xmlns="http://www.w3.org/2000/svg" xmlns:xlink="http://www.w3.org/1999/xlink">
  <g stroke="none" stroke-width="1" fill="currentColor" fill-rule="evenodd">
    <path d="M7.875,0 L7.875,7.875 L0,7.875 L0,1.125 C0,0.50368 0.50368,0 1.125,0 L7.875,0 Z M2.8125,2.8125 L2.8125,5.0625 L5.0625,5.0625 L5.0625,2.8125 L2.8125,2.8125 Z M10.125,0 L10.125,7.875 L18,7.875 L18,1.125 C18,0.50368 17.4963,0 16.875,0 L10.125,0 Z M15.1875,2.8125 L15.1875,5.0625 L12.9375,5.0625 L12.9375,2.8125 L15.1875,2.8125 Z M7.875,10.125 L7.875,18 L1.125,18 C0.50368,18 0,17.4963 0,16.875 L0,10.125 L7.875,10.125 Z M2.8125,12.9375 L2.8125,15.1875 L5.0625,15.1875 L5.0625,12.9375 L2.8125,12.9375 Z M10.125,10.125 L12.375,10.125 L12.375,12.375 L10.125,12.375 L10.125,10.125 Z M14.625,12.375 L12.375,12.375 L12.375,14.625 L14.625,14.625 L14.625,15.75 L10.125,15.75 L10.125,18 L14.625,18 L14.625,15.75 L15.75,15.75 L15.75,18 L18,18 L18,15.75 L18,13.5 L15.75,13.5 L14.625,13.5 L14.625,12.375 Z M14.625,12.375 L14.625,10.125 L18,10.125 L18,12.375 L14.625,12.375 Z"></path>
  </g>
</svg>
