<?xml version="1.0" encoding="UTF-8"?>
<svg width="24px" height="20px" viewBox="0 0 24 20" version="1.1" xmlns="http://www.w3.org/2000/svg" xmlns:xlink="http://www.w3.org/1999/xlink">
    <title>Untitled</title>
    <g id="Page-1" stroke="none" stroke-width="1" fill="none" fill-rule="evenodd">
        <g id="Camera" fill="#FFFFFF">
            <path d="M16.25,11 C16.25,13.3472 14.3472,15.25 12,15.25 C9.6528,15.25 7.75,13.3472 7.75,11 C7.75,8.6528 9.6528,6.75 12,6.75 C14.3472,6.75 16.25,8.6528 16.25,11 Z" id="Path" fill-rule="nonzero"></path>
            <path d="M0,5 L0,18 C0,19.1046 0.8954,20 2,20 L22,20 C23.1046,20 24,19.1046 24,18 L24,5 C24,3.8954 23.1046,3 22,3 L18.8028,3 C18.3012,3 17.8329,2.7493 17.5547,2.3321 L16.5937,0.8906 C16.2228,0.3342 15.5983,0 14.9296,0 L9.0704,0 C8.4017,0 7.7772,0.3342 7.4063,0.8906 L6.4453,2.3321 C6.1671,2.7493 5.6988,3 5.1972,3 L2,3 C0.8954,3 0,3.8954 0,5 Z M18,11 C18,14.3137 15.3137,17 12,17 C8.6863,17 6,14.3137 6,11 C6,7.6863 8.6863,5 12,5 C15.3137,5 18,7.6863 18,11 Z" id="Shape"></path>
        </g>
    </g>
</svg>