<?xml version="1.0" encoding="UTF-8"?>
<svg width="22px" height="20px" viewBox="0 0 22 20" version="1.1" xmlns="http://www.w3.org/2000/svg" xmlns:xlink="http://www.w3.org/1999/xlink">
    <title>Untitled 2</title>
    <g id="Page-1" stroke="none" stroke-width="1" fill="none" fill-rule="evenodd">
        <g id="Image" fill="#FFFFFF">
            <path d="M2,2 L2,12 L5.5896,8.7694 C6.3803,8.0578 7.5896,8.0896 8.3417,8.8417 L17.5,18 L20,18 L20,2 L2,2 Z M1.5,0 C0.6716,0 0,0.6716 0,1.5 L0,18.5 C0,19.3284 0.6716,20 1.5,20 L20.5,20 C21.3284,20 22,19.3284 22,18.5 L22,1.5 C22,0.6716 21.3284,0 20.5,0 L1.5,0 Z M14.5,9.5 C15.6046,9.5 16.5,8.6046 16.5,7.5 C16.5,6.3954 15.6046,5.5 14.5,5.5 C13.3954,5.5 12.5,6.3954 12.5,7.5 C12.5,8.6046 13.3954,9.5 14.5,9.5 Z" id="Shape"></path>
        </g>
    </g>
</svg>